<svg id="visual" viewBox="0 0 900 600" width="900" height="600" xmlns="http://www.w3.org/2000/svg" xmlns:xlink="http://www.w3.org/1999/xlink" version="1.1"><rect width="900" height="600" fill="#2a4151"></rect><g><g transform="translate(14 218)"><path d="M0 -42.9L33.6 -26.8L41.9 9.6L18.6 38.7L-18.6 38.7L-41.9 9.6L-33.6 -26.8Z" fill="none" stroke="#297EA6" stroke-width="2"></path></g><g transform="translate(6 529)"><path d="M0 -39L30.5 -24.3L38 8.7L16.9 35.1L-16.9 35.1L-38 8.7L-30.5 -24.3Z" fill="none" stroke="#297EA6" stroke-width="2"></path></g><g transform="translate(685 268)"><path d="M0 -41L32.1 -25.6L40 9.1L17.8 36.9L-17.8 36.9L-40 9.1L-32.1 -25.6Z" fill="none" stroke="#297EA6" stroke-width="2"></path></g><g transform="translate(96 453)"><path d="M0 -16L12.5 -10L15.6 3.6L6.9 14.4L-6.9 14.4L-15.6 3.6L-12.5 -10Z" stroke="#297EA6" fill="none" stroke-width="2"></path></g><g transform="translate(243 485)"><path d="M0 -16L12.5 -10L15.6 3.6L6.9 14.4L-6.9 14.4L-15.6 3.6L-12.5 -10Z" stroke="#297EA6" fill="none" stroke-width="2"></path></g><g transform="translate(781 207)"><path d="M0 -38L29.7 -23.7L37 8.5L16.5 34.2L-16.5 34.2L-37 8.5L-29.7 -23.7Z" stroke="#297EA6" fill="none" stroke-width="2"></path></g></g></svg>